<svg width="18" height="16" viewBox="0 0 18 16" fill="none" xmlns="http://www.w3.org/2000/svg">
<path d="M17.3594 8.61816L11.1094 14.8682C10.875 15.1025 10.5625 15.2197 10.25 15.2197C9.89844 15.2197 9.58594 15.1025 9.35156 14.8682C8.84375 14.3994 8.84375 13.5791 9.35156 13.1104L13.4531 8.96973H1.5C0.796875 8.96973 0.25 8.42285 0.25 7.71973C0.25 7.05566 0.796875 6.46973 1.5 6.46973H13.4531L9.35156 2.36816C8.84375 1.89941 8.84375 1.0791 9.35156 0.610352C9.82031 0.102539 10.6406 0.102539 11.1094 0.610352L17.3594 6.86035C17.8672 7.3291 17.8672 8.14941 17.3594 8.61816Z" fill="#26374A"/>
</svg>
