<svg width="19" height="24" viewBox="0 0 19 24" fill="none" xmlns="http://www.w3.org/2000/svg">
<path d="M18.2109 12.5C18.2109 13.2031 17.6641 13.75 17 13.75H5.00781L9.10938 17.8906C9.61719 18.3594 9.61719 19.1797 9.10938 19.6484C8.875 19.8828 8.5625 20 8.25 20C7.89844 20 7.58594 19.8828 7.35156 19.6484L1.10156 13.3984C0.59375 12.9297 0.59375 12.1094 1.10156 11.6406L7.35156 5.39062C7.82031 4.88281 8.64062 4.88281 9.10938 5.39062C9.61719 5.85938 9.61719 6.67969 9.10938 7.14844L5.00781 11.25H17C17.6641 11.25 18.2109 11.8359 18.2109 12.5Z" fill="#26374A"/>
</svg>
