<?xml version="1.0" encoding="UTF-8"?>
<svg width="30px" height="33px" viewBox="0 0 30 33" version="1.1" xmlns="http://www.w3.org/2000/svg" xmlns:xlink="http://www.w3.org/1999/xlink">
    <g  stroke="none" stroke-width="1" fill="none" fill-rule="evenodd">
        <g  transform="translate(-257.000000, -573.000000)" fill="#000000" fill-rule="nonzero">
            <g transform="translate(194.000000, 429.000000)">
                <g  transform="translate(0.000000, 131.000000)">
                    <path d="M86.2274678,35.6681641 C86.388412,35.5070312 93,29.7126953 93,29.7126953 L91.8733906,29.2292969 C91.2296137,28.9134766 91.3969957,28.4880859 91.5515021,28.1078125 C91.7060086,27.6179687 92.8454936,23.7701172 92.8454936,23.7701172 C92.8454936,23.7701172 89.7746781,24.4146484 89.1309013,24.5757812 C88.6480687,24.7304688 88.4871245,24.4146484 88.3261803,24.0923828 C88.1652361,23.7701172 87.360515,22.0041016 87.360515,22.0041016 C87.360515,22.0041016 83.9742489,25.8648437 83.8133047,26.0195312 C83.1695279,26.5029297 82.5193133,26.0195312 82.6802575,25.375 C82.6802575,24.7304687 84.4570815,17.021875 84.4570815,17.021875 C84.4570815,17.021875 82.5193133,18.1433594 81.8755365,18.465625 C81.3927039,18.7878906 81.0643777,18.7878906 80.7424893,18.1433594 C80.4141631,17.6599609 77.9935622,13 77.9935622,13 C77.9935622,13 75.5793991,17.6599609 75.2575107,18.1433594 C74.9356223,18.7878906 74.6137339,18.7878906 74.1244635,18.465625 C73.4806867,18.1433594 71.5429185,17.021875 71.5429185,17.021875 C71.5429185,17.021875 73.3197425,24.7304688 73.3197425,25.375 C73.4806867,26.0195312 72.8369099,26.5029297 72.1866953,26.0195312 C72.0257511,25.8583984 68.639485,22.0041016 68.639485,22.0041016 C68.639485,22.0041016 67.8347639,23.7636719 67.6738197,24.0859375 C67.5128755,24.4082031 67.3519313,24.7240234 66.8690987,24.5693359 C66.2188841,24.4082031 63.1545064,23.7636719 63.1545064,23.7636719 C63.1545064,23.7636719 64.2875536,27.6115234 64.4484979,28.1013672 C64.6030043,28.4880859 64.7703863,28.9070313 64.1266094,29.2228516 L63,29.7126953 C63,29.7126953 69.6051502,35.5070313 69.7725322,35.6681641 C70.1008584,35.9904297 70.416309,36.1515625 70.1008584,37.1183594 C69.7725322,38.0851563 69.4506438,39.3806641 69.4506438,39.3806641 C69.4506438,39.3806641 75.5793991,38.0851563 76.2296137,37.9240234 C76.7896996,37.8660156 77.4077253,38.0851563 77.4077253,38.7296875 C77.4077253,39.3806641 77.0343348,46 77.0343348,46 L78.9656652,46 C78.9656652,46 78.5922747,39.3806641 78.5922747,38.7296875 C78.5922747,38.0851562 79.2038627,37.8660156 79.776824,37.9240234 C80.4206009,38.0851562 86.5493562,39.3806641 86.5493562,39.3806641 C86.5493562,39.3806641 86.2274678,38.0851562 85.9055794,37.1183594 C85.583691,36.1515625 85.9055794,35.9904297 86.2274678,35.6681641 L86.2274678,35.6681641 Z" id="Path"></path>
                </g>
            </g>
        </g>
    </g>
</svg>
